<svg id="ICONS" xmlns="http://www.w3.org/2000/svg" viewBox="0 0 48 48"><defs><style>.cls-1{fill:none;}.cls-1,.cls-2,.cls-3{stroke:#0467c6;stroke-linejoin:round;stroke-width:2px;}.cls-2{fill:#b3d1ed;}.cls-3{fill:#fff;}</style></defs><title>Precision Targeter</title><polygon class="cls-1" points="38 23.93 5.88 23.93 1 39.8 42.88 39.8 38 23.93"/><path class="cls-2" d="M41.74,42.11a2.1,2.1,0,0,1,1-1l4-1.9a.9.9,0,0,0-.2-1.43L33.94,32.73a.53.53,0,0,0-.72.72L38.29,46a.91.91,0,0,0,1.44.2Z"/><path class="cls-3" d="M31.79,11.38c0,9-9.85,20.86-9.85,20.86s-9.85-11.68-9.85-20.86a9.85,9.85,0,1,1,19.69,0Z"/><circle class="cls-2" cx="21.94" cy="12.48" r="3.77"/></svg>